HIERARCHY
ROOT Hips
{
	OFFSET 0.000000 83.214638 0.000000
	CHANNELS 6 Xposition Yposition Zposition Xrotation Yrotation Zrotation
	JOINT Pelvis
	{
		OFFSET 0.000000 0.000000 0.000000
		CHANNELS 3 Xrotation Yrotation Zrotation
		JOINT LeftUpLeg
		{
			OFFSET 8.479700 -4.795502 -0.379100
			CHANNELS 3 Xrotation Yrotation Zrotation
			JOINT LeftLeg
			{
				OFFSET 0.024144 -32.555107 0.112900
				CHANNELS 3 Xrotation Yrotation Zrotation
				JOINT LeftFoot
				{
					OFFSET -0.024144 -32.638630 -3.012600
					CHANNELS 3 Xrotation Yrotation Zrotation
					JOINT LeftToeBase
					{
						OFFSET 0.970200 -13.225400 11.864200
						CHANNELS 3 Xrotation Yrotation Zrotation
						End Site
						{
							OFFSET 0.000000 12.319262 0.000000
						}
					}
					JOINT LFootTongue
					{
						OFFSET 1.142400 -1.059800 6.665200
						CHANNELS 3 Xrotation Yrotation Zrotation
						End Site
						{
							OFFSET 0.000000 12.319262 0.000000
						}
					}
				}
				JOINT LeftPantLeg
				{
					OFFSET 0.918482 -16.533964 -2.284700
					CHANNELS 3 Xrotation Yrotation Zrotation
					End Site
					{
						OFFSET 0.350399 24.744368 0.000000
					}
				}
			}
		}
		JOINT RightUpLeg
		{
			OFFSET -8.479700 -4.795502 -0.379100
			CHANNELS 3 Xrotation Yrotation Zrotation
			JOINT RightLeg
			{
				OFFSET -0.023144 -32.555092 0.112900
				CHANNELS 3 Xrotation Yrotation Zrotation
				JOINT RightFoot
				{
					OFFSET 0.023144 -32.638641 -3.012700
					CHANNELS 3 Xrotation Yrotation Zrotation
					JOINT RightToeBase
					{
						OFFSET -0.970200 -13.225400 11.864200
						CHANNELS 3 Xrotation Yrotation Zrotation
						End Site
						{
							OFFSET 0.000000 12.319244 0.000000
						}
					}
					JOINT RFootTongue
					{
						OFFSET -1.142200 -1.059800 6.665200
						CHANNELS 3 Xrotation Yrotation Zrotation
						End Site
						{
							OFFSET 0.000000 12.319243 0.000000
						}
					}
				}
				JOINT RightPantLeg
				{
					OFFSET -0.919482 -16.533978 -2.284800
					CHANNELS 3 Xrotation Yrotation Zrotation
					End Site
					{
						OFFSET -0.350400 24.744419 0.000000
					}
				}
			}
		}
	}
	JOINT Spine
	{
		OFFSET 0.000000 7.722000 1.166200
		CHANNELS 3 Xrotation Yrotation Zrotation
		JOINT Spine1
		{
			OFFSET 0.000000 12.024101 0.248800
			CHANNELS 3 Xrotation Yrotation Zrotation
			JOINT Spine2
			{
				OFFSET 0.000000 11.502998 -0.491200
				CHANNELS 3 Xrotation Yrotation Zrotation
				JOINT Neck
				{
					OFFSET 0.000000 18.430702 -3.123100
					CHANNELS 3 Xrotation Yrotation Zrotation
					JOINT Head
					{
						OFFSET 0.000000 9.051102 1.034000
						CHANNELS 3 Xrotation Yrotation Zrotation
						JOINT HairB
						{
							OFFSET 0.208400 24.786102 24.822300
							CHANNELS 3 Xrotation Yrotation Zrotation
							End Site
							{
								OFFSET 0.000000 32.263779 0.000000
							}
						}
						JOINT HairA
						{
							OFFSET -7.081100 24.428299 23.196600
							CHANNELS 3 Xrotation Yrotation Zrotation
							End Site
							{
								OFFSET 0.000000 32.263779 0.000000
							}
						}
						JOINT Hat
						{
							OFFSET 16.728800 15.048294 -15.439601
							CHANNELS 3 Xrotation Yrotation Zrotation
							End Site
							{
								OFFSET 0.000000 32.263779 0.000000
							}
						}
					}
				}
				JOINT LeftShoulder
				{
					OFFSET 6.197800 13.665199 -4.064700
					CHANNELS 3 Xrotation Yrotation Zrotation
					JOINT LeftArm
					{
						OFFSET 7.778100 -0.187103 -1.709300
						CHANNELS 3 Xrotation Yrotation Zrotation
						JOINT LeftForeArm
						{
							OFFSET 22.049376 0.000000 0.000000
							CHANNELS 3 Xrotation Yrotation Zrotation
							JOINT LeftHand
							{
								OFFSET 23.009392 0.000000 0.000000
								CHANNELS 3 Xrotation Yrotation Zrotation
								JOINT LeftHandThumb1
								{
									OFFSET 3.507191 -2.063065 3.133727
									CHANNELS 3 Xrotation Yrotation Zrotation
									JOINT LeftHandThumb2
									{
										OFFSET 3.101337 -1.790558 1.790558
										CHANNELS 3 Xrotation Yrotation Zrotation
										JOINT LeftHandThumb3
										{
											OFFSET 3.058640 -1.765907 1.765906
											CHANNELS 3 Xrotation Yrotation Zrotation
											End Site
											{
												OFFSET -0.415260 3.926476 -0.049563
											}
										}
									}
								}
								JOINT LeftHandIndex1
								{
									OFFSET 11.334419 -0.901459 3.706815
									CHANNELS 3 Xrotation Yrotation Zrotation
									JOINT LeftHandIndex2
									{
										OFFSET 3.283112 0.000000 0.000000
										CHANNELS 3 Xrotation Yrotation Zrotation
										JOINT LeftHandIndex3
										{
											OFFSET 3.323853 0.000000 0.000000
											CHANNELS 3 Xrotation Yrotation Zrotation
											End Site
											{
												OFFSET -1.135597 3.097809 0.402452
											}
										}
									}
								}
								JOINT LeftHandMiddle1
								{
									OFFSET 11.335861 0.000000 0.000000
									CHANNELS 3 Xrotation Yrotation Zrotation
									JOINT LeftHandMiddle2
									{
										OFFSET 3.410492 0.000000 0.000000
										CHANNELS 3 Xrotation Yrotation Zrotation
										JOINT LeftHandMiddle3
										{
											OFFSET 3.312172 0.000000 0.000000
											CHANNELS 3 Xrotation Yrotation Zrotation
											End Site
											{
												OFFSET -1.150200 3.080154 0.400270
											}
										}
									}
								}
								JOINT LeftHandRing1
								{
									OFFSET 11.514786 -0.013176 -3.003090
									CHANNELS 3 Xrotation Yrotation Zrotation
									JOINT LeftHandRing2
									{
										OFFSET 3.053307 0.000000 0.000000
										CHANNELS 3 Xrotation Yrotation Zrotation
										JOINT LeftHandRing3
										{
											OFFSET 3.295807 0.000000 0.000000
											CHANNELS 3 Xrotation Yrotation Zrotation
											End Site
											{
												OFFSET -1.281006 3.013344 0.375733
											}
										}
									}
								}
								JOINT LeftHandPinky1
								{
									OFFSET 10.518692 -0.960396 -5.730441
									CHANNELS 3 Xrotation Yrotation Zrotation
									JOINT LeftHandPinky2
									{
										OFFSET 2.861649 0.000000 0.000000
										CHANNELS 3 Xrotation Yrotation Zrotation
										JOINT LeftHandPinky3
										{
											OFFSET 2.863380 0.000000 0.000000
											CHANNELS 3 Xrotation Yrotation Zrotation
											End Site
											{
												OFFSET -0.843597 2.711159 0.369971
											}
										}
									}
								}
							}
							JOINT LSleeve
							{
								OFFSET 6.676277 -0.344902 -1.011730
								CHANNELS 3 Xrotation Yrotation Zrotation
								End Site
								{
									OFFSET 0.000000 14.885353 0.000000
								}
							}
						}
					}
				}
				JOINT RightShoulder
				{
					OFFSET -6.197800 13.665199 -4.064700
					CHANNELS 3 Xrotation Yrotation Zrotation
					JOINT RightArm
					{
						OFFSET -7.778100 -0.187103 -1.709300
						CHANNELS 3 Xrotation Yrotation Zrotation
						JOINT RightForeArm
						{
							OFFSET -22.049376 0.000000 0.000000
							CHANNELS 3 Xrotation Yrotation Zrotation
							JOINT RightHand
							{
								OFFSET -23.009392 0.000000 0.000000
								CHANNELS 3 Xrotation Yrotation Zrotation
								JOINT RightHandThumb1
								{
									OFFSET -3.507191 -2.063065 3.133727
									CHANNELS 3 Xrotation Yrotation Zrotation
									JOINT RightHandThumb2
									{
										OFFSET -3.101337 -1.790558 1.790558
										CHANNELS 3 Xrotation Yrotation Zrotation
										JOINT RightHandThumb3
										{
											OFFSET -3.058640 -1.765907 1.765906
											CHANNELS 3 Xrotation Yrotation Zrotation
											End Site
											{
												OFFSET 0.415260 3.926476 -0.049563
											}
										}
									}
								}
								JOINT RightHandIndex1
								{
									OFFSET -11.334419 -0.901459 3.706815
									CHANNELS 3 Xrotation Yrotation Zrotation
									JOINT RightHandIndex2
									{
										OFFSET -3.283112 0.000000 0.000000
										CHANNELS 3 Xrotation Yrotation Zrotation
										JOINT RightHandIndex3
										{
											OFFSET -3.323853 0.000000 0.000000
											CHANNELS 3 Xrotation Yrotation Zrotation
											End Site
											{
												OFFSET 1.135597 3.097809 0.402452
											}
										}
									}
								}
								JOINT RightHandMiddle1
								{
									OFFSET -11.335861 0.000000 0.000000
									CHANNELS 3 Xrotation Yrotation Zrotation
									JOINT RightHandMiddle2
									{
										OFFSET -3.410492 0.000000 0.000000
										CHANNELS 3 Xrotation Yrotation Zrotation
										JOINT RightHandMiddle3
										{
											OFFSET -3.312172 0.000000 0.000000
											CHANNELS 3 Xrotation Yrotation Zrotation
											End Site
											{
												OFFSET 1.150200 3.080154 0.400270
											}
										}
									}
								}
								JOINT RightHandRing1
								{
									OFFSET -11.514786 -0.013176 -3.003090
									CHANNELS 3 Xrotation Yrotation Zrotation
									JOINT RightHandRing2
									{
										OFFSET -3.053307 0.000000 0.000000
										CHANNELS 3 Xrotation Yrotation Zrotation
										JOINT RightHandRing3
										{
											OFFSET -3.295807 0.000000 0.000000
											CHANNELS 3 Xrotation Yrotation Zrotation
											End Site
											{
												OFFSET 1.281006 3.013344 0.375733
											}
										}
									}
								}
								JOINT RightHandPinky1
								{
									OFFSET -10.518692 -0.960396 -5.730441
									CHANNELS 3 Xrotation Yrotation Zrotation
									JOINT RightHandPinky2
									{
										OFFSET -2.861649 0.000000 0.000000
										CHANNELS 3 Xrotation Yrotation Zrotation
										JOINT RightHandPinky3
										{
											OFFSET -2.863380 0.000000 0.000000
											CHANNELS 3 Xrotation Yrotation Zrotation
											End Site
											{
												OFFSET 0.843597 2.711159 0.369971
											}
										}
									}
								}
							}
							JOINT RSleeve
							{
								OFFSET -6.676277 -0.344902 -1.011730
								CHANNELS 3 Xrotation Yrotation Zrotation
								End Site
								{
									OFFSET 0.000000 14.885353 0.000000
								}
							}
						}
					}
				}
				JOINT Backpack
				{
					OFFSET 0.000000 -2.471497 36.677502
					CHANNELS 3 Xrotation Yrotation Zrotation
					End Site
					{
						OFFSET 0.000000 20.427315 0.000000
					}
				}
				JOINT Hood
				{
					OFFSET 0.000000 18.754097 -10.431000
					CHANNELS 3 Xrotation Yrotation Zrotation
					JOINT Hood1
					{
						OFFSET 0.000000 -5.011002 -7.685901
						CHANNELS 3 Xrotation Yrotation Zrotation
						End Site
						{
							OFFSET 0.000000 9.175140 0.000000
						}
					}
				}
				JOINT LHoodieString
				{
					OFFSET 5.250500 16.397697 3.089900
					CHANNELS 3 Xrotation Yrotation Zrotation
					JOINT LHoodieString1
					{
						OFFSET 0.257700 -6.364304 3.694600
						CHANNELS 3 Xrotation Yrotation Zrotation
						JOINT LHoodieString2
						{
							OFFSET 0.000000 -9.643799 2.679100
							CHANNELS 3 Xrotation Yrotation Zrotation
							End Site
							{
								OFFSET 0.000000 10.009018 0.000000
							}
						}
					}
				}
				JOINT RHoodieString
				{
					OFFSET -5.250500 16.397697 3.089900
					CHANNELS 3 Xrotation Yrotation Zrotation
					JOINT RHoodieString1
					{
						OFFSET -0.257700 -6.364304 3.694600
						CHANNELS 3 Xrotation Yrotation Zrotation
						JOINT RHoodieString2
						{
							OFFSET 0.000000 -9.643799 2.679100
							CHANNELS 3 Xrotation Yrotation Zrotation
							End Site
							{
								OFFSET 0.000000 10.009018 0.000000
							}
						}
					}
				}
			}
			JOINT LBackpack_Strap
			{
				OFFSET 15.223200 -7.719803 -6.610900
				CHANNELS 3 Xrotation Yrotation Zrotation
				End Site
				{
					OFFSET 0.000000 16.040596 0.000000
				}
			}
			JOINT RBackpack_Strap
			{
				OFFSET -15.223000 -7.719803 -6.610900
				CHANNELS 3 Xrotation Yrotation Zrotation
				End Site
				{
					OFFSET 0.000000 16.040596 0.000000
				}
			}
		}
	}
	JOINT BoyFacialAnim_Joint
	{
		OFFSET 1.000000 -82.208099 -1.550900
		CHANNELS 3 Xrotation Yrotation Zrotation
		End Site
		{
			OFFSET 0.000000 30.012791 0.000000
		}
	}
}
MOTION
Frames: 4
Frame Time: 0.033333
-8.700628 99.890259 -67.130272 -26.610547 13.477113 -13.646586 0.000000 -0.000001 0.000001 -14.627904 -1.482867 34.278042 71.992366 -10.017218 9.479377 22.161713 -31.227000 -23.619622 -0.000000 0.000000 -0.000001 -0.000000 0.000000 -0.000001 -0.000001 -0.000002 -0.000000 -80.278130 11.418963 -10.362604 54.730996 9.531396 -9.055798 55.099508 32.944734 28.569097 0.000000 0.000001 -0.000000 0.000000 0.000001 -0.000000 -0.000003 -0.000000 0.000001 14.383595 -4.818491 6.444270 27.004586 -7.119664 8.216572 27.103598 -6.980911 7.909316 9.249869 -0.796750 0.435181 8.738509 -3.421637 -0.664031 -0.000001 0.000000 0.000000 -0.000001 0.000000 0.000000 -0.000001 0.000000 0.000000 1.833517 -9.126086 2.867016 -66.605710 -31.061235 -60.089142 -0.000070 -82.074593 -0.000085 -10.722043 -44.988595 36.230240 -1.540044 3.690184 6.142360 20.858686 30.471096 -22.868308 0.000002 -0.000000 0.000001 0.380285 2.260768 -19.094656 0.226505 1.754951 -14.707636 -0.000003 0.000001 -0.000005 0.379663 2.258939 -19.078670 0.226987 1.756818 -14.723630 0.000005 -0.000000 -0.000002 0.380285 2.260761 -19.094666 0.226496 1.754954 -14.707638 -0.000002 0.000002 -0.000002 1.695961 6.096924 -18.680166 0.224149 -2.301357 -15.201800 -0.000003 0.000000 -0.000000 -0.000002 0.000003 0.000000 0.846528 0.581358 6.327680 -40.203600 9.409458 26.237333 0.000002 13.796647 0.000002 -42.871304 10.142393 15.642016 -1.849250 -3.581788 -6.586127 17.815836 -33.122213 15.974313 -0.000001 -0.000000 -0.000001 0.055192 -0.876256 7.209809 0.174878 -1.552622 12.850802 -0.000001 0.000000 0.000002 0.055211 -0.876252 7.209799 0.174863 -1.552621 12.850822 -0.000000 0.000001 -0.000002 0.055212 -0.876252 7.209798 0.174861 -1.552624 12.850815 0.000005 -0.000000 -0.000001 0.055197 -0.876248 7.209798 0.174876 -1.552627 12.850805 -0.000006 0.000001 -0.000003 -0.000001 -0.000000 0.000002 0.000000 -0.000001 -0.000000 0.000000 -0.000001 -0.000000 0.000000 -0.000001 -0.000000 0.000000 -0.000001 -0.000000 0.000000 -0.000001 0.000001 -0.000002 -0.000001 0.000001 0.000000 -0.000001 -0.000000 0.000000 -0.000001 0.000001 -0.000002 -0.000001 0.000001 -0.000000 0.000000 -0.000000 -0.000000 0.000000 -0.000000 0.000000 -0.000001 0.000001 
-7.885643 99.391045 -71.518921 -19.766065 7.608036 -14.710247 0.000001 -0.000001 0.000001 -13.823570 3.185399 29.012560 59.217884 -9.688532 9.218086 28.598181 -30.453863 -12.556063 -0.000000 -0.000001 0.000000 -0.000000 -0.000001 0.000000 0.000001 0.000001 -0.000000 -89.799038 10.889634 -12.465895 28.723777 7.458381 -5.629429 73.776691 32.693380 27.908489 0.000000 0.000001 -0.000000 0.000000 0.000001 -0.000000 0.000000 0.000002 -0.000001 12.878780 -3.764523 5.646103 23.974186 -6.223309 7.988060 24.017561 -6.308914 7.783668 9.034936 -0.649957 0.040745 8.281334 -2.592967 -2.226763 0.000001 0.000000 0.000001 0.000001 0.000000 0.000001 0.000001 0.000000 0.000001 1.666150 -8.138702 3.294630 -70.691392 -30.360379 -56.131113 0.000479 -81.248351 0.000477 0.925428 -33.704429 53.178422 -1.540042 3.690182 6.142359 20.858684 30.471089 -22.868310 -0.000001 0.000007 0.000001 0.410476 2.346067 -19.845632 0.248845 1.837900 -15.420183 0.000000 0.000001 -0.000002 0.409824 2.344247 -19.829653 0.249353 1.839758 -15.436205 0.000002 0.000001 -0.000001 0.410478 2.346062 -19.845647 0.248840 1.837897 -15.420175 -0.000000 0.000001 -0.000004 1.776756 6.164639 -19.436651 0.247205 -2.218598 -15.912758 -0.000001 0.000002 0.000000 -0.000000 -0.000003 -0.000002 0.809646 0.491631 5.760681 -44.358578 14.201849 21.145659 -0.000003 13.798826 -0.000004 -49.329446 6.235252 15.841966 -1.849250 -3.581791 -6.586124 17.815831 -33.122213 15.974315 0.000001 0.000001 0.000002 0.043111 -0.774546 6.369101 0.155688 -1.466049 12.122660 0.000001 0.000001 0.000002 0.043115 -0.774547 6.369107 0.155677 -1.466040 12.122668 0.000002 -0.000004 0.000001 0.043107 -0.774544 6.369113 0.155693 -1.466048 12.122658 -0.000003 0.000001 0.000002 0.043110 -0.774546 6.369108 0.155681 -1.466042 12.122660 -0.000000 -0.000003 0.000002 -0.000001 -0.000001 0.000002 0.000002 0.000002 -0.000000 0.000002 0.000002 -0.000000 0.000002 0.000002 -0.000000 0.000002 0.000002 -0.000000 0.000002 0.000002 -0.000001 0.000000 0.000000 -0.000000 0.000002 0.000002 -0.000000 0.000002 0.000002 -0.000001 0.000000 0.000000 -0.000000 0.000001 0.000000 -0.000000 0.000001 0.000000 -0.000000 0.000001 -0.000001 0.000001 
-6.930000 97.313911 -77.361916 -14.864718 -1.600064 -15.274026 0.000000 -0.000000 0.000000 -15.177256 5.494278 21.353799 48.825016 -9.397677 9.187791 35.302745 -29.323925 -1.562103 0.000000 0.000000 -0.000000 0.000000 0.000000 -0.000000 -0.000000 -0.000000 -0.000000 -101.775201 5.486827 -8.360270 15.736626 -10.324460 1.098022 71.124297 24.954415 9.971064 -0.000000 0.000000 0.000000 -0.000000 0.000000 0.000000 -0.000001 0.000000 0.000001 11.093377 -1.089131 3.406920 20.584122 -4.430427 6.630713 20.570626 -4.672491 6.533404 8.781328 -0.334972 0.212756 7.648284 -0.252151 -3.872418 -0.000001 0.000001 -0.000000 -0.000001 0.000001 -0.000000 -0.000001 0.000001 -0.000000 1.469941 -6.927602 3.119109 -69.275672 -29.355716 -46.262012 0.000096 -78.517894 0.000105 7.070772 -20.362338 52.587843 -1.540044 3.690181 6.142358 20.858686 30.471089 -22.868310 -0.000000 -0.000003 -0.000000 0.460946 2.481343 -21.044072 0.286728 1.970010 -16.560263 -0.000001 -0.000001 0.000001 0.460248 2.479541 -21.028057 0.287282 1.971860 -16.576239 0.000002 -0.000002 -0.000002 0.460943 2.481334 -21.044076 0.286730 1.970009 -16.560250 0.000002 0.000002 -0.000000 1.907528 6.270484 -20.644085 0.286224 -2.086820 -17.050087 -0.000001 0.000001 -0.000002 0.000001 -0.000001 -0.000001 0.829057 0.687265 5.691425 -49.690282 27.427169 18.345555 -0.000000 5.933434 0.000001 -54.168082 6.984498 12.525081 -1.849248 -3.581790 -6.586127 17.815835 -33.122217 15.974320 0.000001 0.000003 -0.000003 0.049319 -0.828443 6.814431 0.172474 -1.542203 12.763022 -0.000004 -0.000001 -0.000000 0.049328 -0.828447 6.814431 0.172476 -1.542201 12.763036 -0.000001 0.000000 0.000002 0.049319 -0.828442 6.814437 0.172482 -1.542200 12.763024 0.000000 -0.000001 -0.000001 0.049318 -0.828440 6.814423 0.172482 -1.542205 12.763023 0.000000 -0.000001 -0.000000 -0.000001 0.000001 -0.000001 -0.000001 -0.000000 0.000001 -0.000001 -0.000000 0.000001 -0.000001 -0.000000 0.000001 -0.000001 -0.000000 0.000001 -0.000001 -0.000000 0.000000 -0.000001 -0.000000 0.000001 -0.000001 -0.000000 0.000001 -0.000001 -0.000000 0.000000 -0.000001 -0.000000 0.000001 0.000000 0.000001 0.000000 0.000000 0.000001 0.000000 0.000000 -0.000000 0.000000 
-6.539839 94.479645 -80.411720 -13.488496 -9.556358 -16.757121 0.000001 0.000000 -0.000001 -12.464257 7.273063 18.166266 38.924497 -10.675889 8.985294 35.362983 -29.220140 0.508848 -0.000001 0.000001 0.000001 -0.000001 0.000001 -0.000001 -0.000000 0.000001 -0.000001 -112.658021 -3.467224 -4.626605 28.950614 -11.659375 7.619303 69.710871 2.614418 10.589681 0.000001 0.000000 0.000000 0.000001 0.000000 0.000000 -0.000001 -0.000000 0.000000 10.136101 0.504973 1.903832 18.322042 -2.430272 5.233960 18.299970 -2.752180 5.200751 8.385286 0.240067 -0.012913 7.812505 2.698586 -4.812222 -0.000001 -0.000002 0.000001 -0.000001 -0.000002 0.000001 -0.000001 -0.000002 0.000001 1.293254 -5.723902 2.581798 -63.118004 -26.588876 -34.638314 -0.000209 -75.389654 -0.000201 12.384525 -13.062963 40.065794 -1.540041 3.690181 6.142361 20.858679 30.471093 -22.868305 -0.000005 -0.000002 0.000001 0.539091 2.675408 -22.781080 0.346402 2.160445 -18.215862 0.000001 0.000000 -0.000003 0.538342 2.673631 -22.765050 0.346998 2.162259 -18.231884 0.000003 0.000002 0.000001 0.539090 2.675397 -22.781082 0.346395 2.160443 -18.215870 0.000001 0.000001 -0.000002 2.100987 6.418937 -22.394536 0.347513 -1.896937 -18.701430 -0.000003 0.000001 -0.000000 -0.000000 0.000000 0.000002 0.828206 0.925488 5.069678 -55.204854 38.450659 20.106965 0.000004 1.018173 0.000005 -57.046218 10.865094 8.113956 -1.849249 -3.581790 -6.586128 17.815831 -33.122213 15.974318 -0.000002 0.000001 -0.000002 0.070406 -0.989051 8.143955 0.217791 -1.729934 14.348960 0.000001 0.000000 0.000004 0.070409 -0.989049 8.143954 0.217799 -1.729933 14.348971 0.000001 0.000000 -0.000005 0.070415 -0.989049 8.143955 0.217769 -1.729921 14.348969 -0.000000 0.000000 0.000006 0.070405 -0.989045 8.143954 0.217782 -1.729933 14.348967 -0.000000 -0.000001 0.000005 -0.000002 -0.000000 0.000001 0.000002 -0.000001 0.000000 0.000002 -0.000001 0.000000 0.000002 -0.000001 0.000000 0.000002 -0.000001 0.000000 0.000002 -0.000001 0.000000 -0.000000 0.000001 -0.000000 0.000002 -0.000001 0.000000 0.000002 -0.000001 0.000000 -0.000000 0.000001 -0.000000 0.000001 -0.000000 0.000000 0.000001 -0.000000 0.000000 0.000001 0.000000 -0.000001 
